<?xml version="1.0" standalone="no"?>
<!DOCTYPE svg PUBLIC "-//W3C//DTD SVG 20010904//EN"
 "http://www.w3.org/TR/2001/REC-SVG-20010904/DTD/svg10.dtd">
<svg version="1.0" xmlns="http://www.w3.org/2000/svg"
 width="512.000000pt" height="512.000000pt" viewBox="0 0 512.000000 512.000000"
 preserveAspectRatio="xMidYMid meet">
<metadata>
Created by potrace 1.14, written by Peter Selinger 2001-2017
</metadata>
<g transform="translate(0.000000,512.000000) scale(0.100000,-0.100000)"
fill="#000000" stroke="none">
<path d="M618 3715 c-27 -6 -48 -11 -48 -9 0 1 -30 -9 -67 -22 -109 -40 -201
-100 -288 -189 -94 -96 -136 -163 -178 -282 -29 -81 -31 -99 -31 -218 0 -151
21 -242 80 -347 60 -106 102 -155 224 -259 41 -35 93 -79 114 -99 55 -50 52
-47 151 -135 50 -44 92 -82 95 -85 3 -3 43 -39 90 -80 47 -40 87 -76 90 -80 3
-3 39 -35 80 -70 41 -35 77 -66 80 -69 3 -3 41 -37 85 -76 44 -38 99 -88 123
-110 111 -101 211 -154 343 -179 163 -31 340 7 476 100 37 26 152 132 432 401
54 51 101 88 107 85 6 -4 53 -45 104 -92 51 -47 102 -94 114 -105 13 -11 65
-59 117 -106 52 -48 123 -112 159 -143 70 -62 192 -126 278 -146 60 -14 185
-18 252 -8 88 13 207 64 280 120 55 42 1025 1007 1066 1059 164 213 191 497
70 737 -176 350 -600 511 -976 371 -110 -41 -193 -99 -335 -234 -83 -79 -348
-330 -405 -385 -26 -25 -118 -112 -205 -195 -181 -172 -177 -168 -396 -376
-90 -86 -180 -171 -199 -189 -31 -28 -279 -264 -395 -375 -23 -22 -81 -78
-129 -123 -116 -111 -185 -145 -300 -145 -67 -1 -91 4 -139 26 -61 28 -77 39
-187 138 -36 31 -74 66 -86 76 -37 32 -166 147 -218 194 -28 25 -69 61 -90 80
-22 19 -51 44 -64 56 l-24 22 29 6 c171 39 337 125 460 241 44 42 427 413 633
614 199 194 280 267 311 281 100 47 118 52 199 55 148 6 239 -35 372 -168 92
-92 123 -107 191 -94 82 17 123 106 84 182 -23 43 -113 140 -176 188 -72 56
-178 108 -266 132 -103 28 -289 26 -390 -4 -114 -34 -217 -97 -316 -193 -306
-296 -298 -289 -329 -289 -68 0 -107 29 -225 166 -100 116 -121 139 -154 169
-86 76 -206 139 -326 171 -85 22 -279 27 -347 9z m244 -255 c35 -6 95 -27 133
-45 76 -36 129 -83 245 -215 125 -142 140 -158 183 -186 23 -16 44 -30 47 -32
4 -3 -31 -37 -271 -266 -107 -102 -174 -146 -281 -183 -280 -98 -591 87 -640
380 -29 177 55 363 213 473 55 38 183 80 252 83 31 1 85 -3 119 -9z m3573 -5
c90 -20 174 -67 239 -131 158 -155 190 -374 83 -557 -17 -28 -215 -233 -485
-501 -627 -624 -583 -585 -690 -610 -94 -22 -184 -9 -267 39 -45 26 -47 28
-175 145 -51 47 -102 93 -113 103 -11 9 -68 61 -125 115 -57 53 -113 104 -122
112 -17 14 -16 17 29 60 26 25 119 113 206 195 87 83 177 168 200 190 23 22
113 108 200 190 87 83 177 168 200 190 32 31 309 294 369 350 48 46 170 105
241 118 56 10 150 6 210 -8z"/>
</g>
</svg>
