<svg width="168" height="206" viewBox="0 0 168 206" fill="none" xmlns="http://www.w3.org/2000/svg">
<circle cx="89.5" cy="32.5" r="22.5" fill="#FCE8FF"/>
<path d="M-21 0.25C-21.6904 0.25 -22.25 0.809644 -22.25 1.5C-22.25 2.19036 -21.6904 2.75 -21 2.75V0.25ZM10.25 19.5C10.25 18.8096 9.69036 18.25 9 18.25C8.30964 18.25 7.75 18.8096 7.75 19.5H10.25ZM-17.25 2.75C-16.5596 2.75 -16 2.19036 -16 1.5C-16 0.809644 -16.5596 0.25 -17.25 0.25V2.75ZM-9.75 0.25C-10.4404 0.25 -11 0.809644 -11 1.5C-11 2.19036 -10.4404 2.75 -9.75 2.75V0.25ZM-3.31516 3.01175C-2.63792 3.14572 -1.98031 2.70533 -1.84633 2.0281C-1.71236 1.35087 -2.15275 0.693253 -2.82998 0.559276L-3.31516 3.01175ZM3.02964 2.98781C2.45597 2.60375 1.67958 2.75746 1.29552 3.33112C0.911467 3.90478 1.06517 4.68117 1.63884 5.06523L3.02964 2.98781ZM5.43477 8.86116C5.81883 9.43483 6.59522 9.58853 7.16888 9.20447C7.74254 8.82042 7.89625 8.04403 7.51219 7.47037L5.43477 8.86116ZM9.94072 13.33C9.80675 12.6528 9.14913 12.2124 8.4719 12.3463C7.79467 12.4803 7.35428 13.1379 7.48825 13.8152L9.94072 13.33ZM7.75 17.25C7.75 17.9404 8.30964 18.5 9 18.5C9.69036 18.5 10.25 17.9404 10.25 17.25H7.75ZM10.25 18.75C10.25 18.0596 9.69036 17.5 9 17.5C8.30964 17.5 7.75 18.0596 7.75 18.75H10.25ZM8.03073 22.3773C8.1647 23.0545 8.82232 23.4949 9.49955 23.3609C10.1768 23.2269 10.6172 22.5693 10.4832 21.8921L8.03073 22.3773ZM12.3126 26.3054C11.9285 25.7317 11.1521 25.578 10.5785 25.9621C10.0048 26.3462 9.8511 27.1225 10.2352 27.6962L12.3126 26.3054ZM14.3038 31.7648C14.8775 32.1489 15.6538 31.9952 16.0379 31.4215C16.422 30.8479 16.2683 30.0715 15.6946 29.6874L14.3038 31.7648ZM20.1079 31.5168C19.4307 31.3828 18.7731 31.8232 18.6391 32.5005C18.5051 33.1777 18.9455 33.8353 19.6227 33.9693L20.1079 31.5168ZM25.75 34.25C26.4404 34.25 27 33.6904 27 33C27 32.3096 26.4404 31.75 25.75 31.75V34.25ZM32.25 31.75C31.5596 31.75 31 32.3096 31 33C31 33.6904 31.5596 34.25 32.25 34.25V31.75ZM38.75 34.25C39.4404 34.25 40 33.6904 40 33C40 32.3096 39.4404 31.75 38.75 31.75V34.25ZM45.25 31.75C44.5596 31.75 44 32.3096 44 33C44 33.6904 44.5596 34.25 45.25 34.25V31.75ZM51.75 34.25C52.4404 34.25 53 33.6904 53 33C53 32.3096 52.4404 31.75 51.75 31.75V34.25ZM58.25 31.75C57.5596 31.75 57 32.3096 57 33C57 33.6904 57.5596 34.25 58.25 34.25V31.75ZM64.75 34.25C65.4404 34.25 66 33.6904 66 33C66 32.3096 65.4404 31.75 64.75 31.75V34.25ZM71.25 31.75C70.5596 31.75 70 32.3096 70 33C70 33.6904 70.5596 34.25 71.25 34.25V31.75ZM77.75 34.25C78.4404 34.25 79 33.6904 79 33C79 32.3096 78.4404 31.75 77.75 31.75V34.25ZM84.25 31.75C83.5596 31.75 83 32.3096 83 33C83 33.6904 83.5596 34.25 84.25 34.25V31.75ZM-21 2.75H-17.25V0.25H-21V2.75ZM-9.75 2.75H-6V0.25H-9.75V2.75ZM-6 2.75C-5.0801 2.75 -4.1825 2.84016 -3.31516 3.01175L-2.82998 0.559276C-3.85625 0.356249 -4.91634 0.25 -6 0.25V2.75ZM1.63884 5.06523C3.13883 6.06945 4.43055 7.36117 5.43477 8.86116L7.51219 7.47037C6.32617 5.69882 4.80118 4.17383 3.02964 2.98781L1.63884 5.06523ZM7.48825 13.8152C7.65984 14.6825 7.75 15.5801 7.75 16.5H10.25C10.25 15.4163 10.1438 14.3563 9.94072 13.33L7.48825 13.8152ZM7.75 16.5V17.25H10.25V16.5H7.75ZM7.75 18.75V19.5H10.25V18.75H7.75ZM7.75 19.5C7.75 20.4835 7.84643 21.4457 8.03073 22.3773L10.4832 21.8921C10.3303 21.1194 10.25 20.3197 10.25 19.5H7.75ZM10.2352 27.6962C11.3117 29.3042 12.6958 30.6883 14.3038 31.7648L15.6946 29.6874C14.3582 28.7927 13.2073 27.6418 12.3126 26.3054L10.2352 27.6962ZM19.6227 33.9693C20.5543 34.1536 21.5165 34.25 22.5 34.25V31.75C21.6803 31.75 20.8806 31.6697 20.1079 31.5168L19.6227 33.9693ZM22.5 34.25H25.75V31.75H22.5V34.25ZM32.25 34.25H38.75V31.75H32.25V34.25ZM45.25 34.25H51.75V31.75H45.25V34.25ZM58.25 34.25H64.75V31.75H58.25V34.25ZM71.25 34.25H77.75V31.75H71.25V34.25ZM84.25 34.25H87.5V31.75H84.25V34.25Z" fill="#00004F"/>
<g filter="url(#filter0_bddddd_2104_47)">
<circle cx="90" cy="33" r="6" fill="url(#paint0_linear_2104_47)"/>
<circle cx="90" cy="33" r="6" stroke="white" stroke-width="3"/>
</g>
<defs>
<filter id="filter0_bddddd_2104_47" x="12.8226" y="-26.7581" width="154.355" height="231.871" filterUnits="userSpaceOnUse" color-interpolation-filters="sRGB">
<feFlood flood-opacity="0" result="BackgroundImageFix"/>
<feGaussianBlur in="BackgroundImageFix" stdDeviation="26.129"/>
<feComposite in2="SourceAlpha" operator="in" result="effect1_backgroundBlur_2104_47"/>
<feColorMatrix in="SourceAlpha" type="matrix" values="0 0 0 0 0 0 0 0 0 0 0 0 0 0 0 0 0 0 127 0" result="hardAlpha"/>
<feOffset dy="11.8874"/>
<feGaussianBlur stdDeviation="4.36235"/>
<feColorMatrix type="matrix" values="0 0 0 0 0.369531 0 0 0 0 0.396406 0 0 0 0 0.5375 0 0 0 0.155 0"/>
<feBlend mode="normal" in2="effect1_backgroundBlur_2104_47" result="effect2_dropShadow_2104_47"/>
<feColorMatrix in="SourceAlpha" type="matrix" values="0 0 0 0 0 0 0 0 0 0 0 0 0 0 0 0 0 0 127 0" result="hardAlpha"/>
<feOffset dy="21.2051"/>
<feGaussianBlur stdDeviation="7.78168"/>
<feColorMatrix type="matrix" values="0 0 0 0 0.409635 0 0 0 0 0.587469 0 0 0 0 0.6875 0 0 0 0.1 0"/>
<feBlend mode="normal" in2="effect2_dropShadow_2104_47" result="effect3_dropShadow_2104_47"/>
<feColorMatrix in="SourceAlpha" type="matrix" values="0 0 0 0 0 0 0 0 0 0 0 0 0 0 0 0 0 0 127 0" result="hardAlpha"/>
<feOffset dy="39.6618"/>
<feGaussianBlur stdDeviation="14.5548"/>
<feColorMatrix type="matrix" values="0 0 0 0 0.593437 0 0 0 0 0.665213 0 0 0 0 0.675 0 0 0 0.222845 0"/>
<feBlend mode="normal" in2="effect3_dropShadow_2104_47" result="effect4_dropShadow_2104_47"/>
<feColorMatrix in="SourceAlpha" type="matrix" values="0 0 0 0 0 0 0 0 0 0 0 0 0 0 0 0 0 0 127 0" result="hardAlpha"/>
<feOffset dy="94.9355"/>
<feGaussianBlur stdDeviation="34.8387"/>
<feColorMatrix type="matrix" values="0 0 0 0 0.673142 0 0 0 0 0.744303 0 0 0 0 0.795833 0 0 0 0.21 0"/>
<feBlend mode="normal" in2="effect4_dropShadow_2104_47" result="effect5_dropShadow_2104_47"/>
<feColorMatrix in="SourceAlpha" type="matrix" values="0 0 0 0 0 0 0 0 0 0 0 0 0 0 0 0 0 0 127 0" result="hardAlpha"/>
<feOffset dy="3.48387"/>
<feGaussianBlur stdDeviation="1.74194"/>
<feComposite in2="hardAlpha" operator="out"/>
<feColorMatrix type="matrix" values="0 0 0 0 0.312813 0 0 0 0 0.394556 0 0 0 0 0.4125 0 0 0 0.15 0"/>
<feBlend mode="normal" in2="effect5_dropShadow_2104_47" result="effect6_dropShadow_2104_47"/>
<feBlend mode="normal" in="SourceGraphic" in2="effect6_dropShadow_2104_47" result="shape"/>
</filter>
<linearGradient id="paint0_linear_2104_47" x1="89.5" y1="37.5" x2="91.5" y2="20.75" gradientUnits="userSpaceOnUse">
<stop stop-color="#232133"/>
<stop offset="0.528223" stop-color="#3A3753"/>
</linearGradient>
</defs>
</svg>
