<svg width="153" height="22" viewBox="0 0 153 22" fill="none" xmlns="http://www.w3.org/2000/svg">
<g clip-path="url(#clip0_236_313)">
<path d="M35.1477 18.5938C33.8777 19.8471 31.7967 19.8766 30.4808 18.6675L25.7067 14.3324C25.217 13.8753 24.4213 13.89 23.9317 14.3471C23.4267 14.8337 23.442 15.6152 23.947 16.0871L28.6905 20.4074L28.7058 20.4222C29.8381 21.4838 31.2917 21.9999 32.7607 21.9999C34.2755 21.9999 35.8057 21.4249 36.938 20.3042L40.3808 16.8833L37.7031 16.0428L35.1477 18.5938Z" fill="#F63B70"/>
<path d="M30.634 18.815L24.7429 13.4182L22.9067 15.0844L28.7366 20.4222L30.634 18.815Z" fill="url(#paint0_linear_236_313)"/>
<path d="M47.7409 6.73858C47.6797 4.93966 46.9146 3.25869 45.5681 1.99059C44.2215 0.722497 42.4466 0.0147225 40.5798 -2.28281e-05C38.6212 -0.0147681 36.8003 0.707752 35.4079 2.03483L18.0253 18.5496C16.7553 19.7587 14.7508 19.7734 13.4502 18.6086L4.42227 10.5871L2.7085 12.3713L11.7364 20.378C14.0316 22.4423 17.5663 22.3981 19.8003 20.2748L37.1828 3.76003C38.0703 2.9048 39.2486 2.43295 40.5033 2.43295C40.5186 2.43295 40.5339 2.43295 40.5492 2.43295C41.758 2.4477 42.9056 2.9048 43.7778 3.73054C44.65 4.55628 45.1549 5.64743 45.2008 6.81231C45.2008 6.85655 45.2008 6.90078 45.2008 6.94502C45.2008 8.02142 44.7571 9.0536 43.9461 9.86459L37.6113 16.1608L40.2279 17.0603L45.767 11.5603C47.0523 10.2922 47.7409 8.64073 47.7409 6.93027C47.7409 6.87129 47.7409 6.79756 47.7409 6.73858Z" fill="url(#paint1_linear_236_313)"/>
<path d="M4.42227 10.5872L2.7085 12.3713L10.7265 19.5376L13.037 18.2547L4.42227 10.5872Z" fill="url(#paint2_linear_236_313)"/>
<path d="M13.8481 7.0188C13.8328 7.0188 13.8328 7.0188 13.8481 7.0188L13.2666 7.57912L13.8481 7.0188Z" fill="url(#paint3_linear_236_313)"/>
<path d="M29.0265 2.7862C27.8482 1.31167 26.0886 0.353224 24.1759 0.205771C24.1147 0.205771 24.0688 0.191026 24.0076 0.191026C22.1561 0.0878087 20.3199 0.751348 19.004 2.0047L16.3721 4.57038L16.1885 4.71784L13.832 7.0181L13.2506 7.57843L10.8176 9.93768C9.80773 10.8519 8.4459 11.4564 7.34419 11.4859C7.29828 11.4859 7.25238 11.4859 7.22178 11.4859C5.95175 11.4859 4.77353 11.0141 3.88604 10.1441C2.99855 9.27414 2.52421 8.124 2.53951 6.90014C2.55481 5.73526 3.04446 4.62936 3.90134 3.78888C4.75823 2.9484 5.90585 2.47655 7.11467 2.44706C7.16057 2.44706 7.19117 2.44706 7.23708 2.44706C8.64482 2.44706 9.94545 3.03687 10.8482 4.08379L11.1237 4.39344C11.5521 4.88003 11.9806 5.39612 12.4396 5.88271L12.6385 6.10389C12.9905 6.48727 13.4036 6.79692 13.8626 7.0181L16.1885 4.71784L16.1579 4.74733C15.9436 4.95376 15.7753 4.98325 15.4846 4.96851C15.148 4.95376 14.796 4.79156 14.5359 4.49666L14.3064 4.27548C13.8779 3.80363 13.4495 3.30229 13.0364 2.83044L12.7762 2.50604C11.3532 0.86931 9.25688 -0.044899 7.03816 -0.00066311C5.17137 0.0435728 3.4117 0.780838 2.09576 2.06368C0.764531 3.36127 0.0300573 5.05698 -0.00054577 6.85591C-0.0311488 8.72856 0.703325 10.498 2.08046 11.8398C3.4423 13.1816 5.27848 13.9189 7.22178 13.9189C7.28298 13.9189 7.35949 13.9189 7.4207 13.9189C9.13447 13.8747 11.1084 13.0194 12.5773 11.7071L12.5926 11.6924L20.7942 3.74465C21.6052 2.97789 22.7375 2.56502 23.8698 2.624C24.8185 2.68298 25.7366 3.08111 26.4558 3.74465L27.4657 4.79156C27.94 5.27816 28.7357 5.30765 29.256 4.85054C29.7609 4.39344 29.7915 3.62668 29.3172 3.12534L29.0265 2.7862Z" fill="url(#paint4_linear_236_313)"/>
<path d="M16.1432 4.74806C15.929 4.95449 15.7606 4.98398 15.4699 4.96924C15.1333 4.95449 14.7813 4.79229 14.5212 4.49739L14.307 4.27621C13.8786 3.80436 13.4501 3.30302 13.037 2.83117L12.7768 2.50677C11.3538 0.870042 9.25749 -0.0441666 7.03877 6.93116e-05C6.64093 0.0148146 6.22779 0.0443052 5.84525 0.118032L5.56982 2.71321C6.05947 2.53626 6.56442 2.43304 7.09998 2.43304C7.14588 2.43304 7.17648 2.43304 7.22239 2.43304C8.63013 2.43304 9.93076 3.02286 10.8335 4.06977L11.109 4.37943C11.5374 4.86602 11.9659 5.38211 12.4249 5.8687L12.6238 6.08988C12.9758 6.47326 13.3889 6.78291 13.8479 7.00409L16.1891 4.71857L16.1432 4.74806Z" fill="url(#paint5_linear_236_313)"/>
<path d="M75.6048 14.6125L72.9423 21.5575H70.1115L67.0359 12.6661L63.9603 21.5575H61.1295L56.585 9.56958H59.6912L62.6138 18.2693L65.6588 9.56958H68.4589L71.5039 18.2988L73.0188 14.0227C73.585 12.2385 73.9216 10.8672 73.6462 9.58433H76.4463C76.783 10.9704 76.3698 12.5481 75.6048 14.6125Z" fill="#00004F"/>
<path d="M91.5947 16.5589H81.2968C81.6946 18.2989 83.1789 19.449 85.1222 19.449C86.5605 19.449 87.7999 18.815 88.4426 17.9008H91.4723C90.4777 20.26 88.0294 21.823 85.0763 21.823C81.2203 21.823 78.3589 19.1246 78.3589 15.5415C78.3589 11.9731 81.2203 9.26001 84.9997 9.26001C88.8098 9.26001 91.6559 11.9584 91.6559 15.5563C91.6712 15.8364 91.6406 16.2788 91.5947 16.5589ZM81.3121 14.4061H88.7027C88.2743 12.7546 86.8053 11.6487 84.9997 11.6487C83.1942 11.6487 81.7864 12.7546 81.3121 14.4061Z" fill="#00004F"/>
<path d="M111.563 14.6125L108.901 21.5575H106.07L102.994 12.6661L99.9188 21.5575H97.088L92.5435 9.56958H95.6497L98.5723 18.2693L101.617 9.56958H104.417L107.462 18.2988L108.977 14.0227C109.543 12.2385 109.88 10.8672 109.605 9.58433H112.405C112.726 10.9704 112.313 12.5481 111.563 14.6125Z" fill="#00004F"/>
<path d="M128.961 19.0067V21.5428H128.181C126.421 21.5428 125.319 20.8351 124.983 19.5227C123.988 20.9383 122.397 21.823 120.5 21.823C116.98 21.823 114.379 19.1246 114.379 15.5415C114.379 11.9731 116.995 9.26001 120.5 9.26001C122.336 9.26001 123.866 10.0857 124.876 11.3981V9.55492H127.615V17.9008C127.615 18.579 128.028 19.0067 128.762 19.0067H128.961ZM124.86 15.5563C124.86 13.4329 123.223 11.8109 121.035 11.8109C118.816 11.8109 117.179 13.4329 117.179 15.5563C117.179 17.6796 118.816 19.3016 121.035 19.3016C123.223 19.2868 124.86 17.6648 124.86 15.5563Z" fill="#00004F"/>
<path d="M138.387 9.36328V12.0617C135.755 12.0617 134.21 13.492 134.21 15.7038V21.5429H131.471V9.55497H134.21V11.5603C135.189 10.189 136.627 9.36328 138.387 9.36328Z" fill="#00004F"/>
<path d="M152.923 16.5589H142.625C143.023 18.2989 144.507 19.449 146.451 19.449C147.889 19.449 149.129 18.815 149.771 17.9008H152.801C151.806 20.26 149.358 21.823 146.405 21.823C142.549 21.823 139.688 19.1246 139.688 15.5415C139.688 11.9731 142.549 9.26001 146.328 9.26001C150.138 9.26001 152.984 11.9584 152.984 15.5563C153 15.8364 152.969 16.2788 152.923 16.5589ZM142.656 14.4061H150.047C149.603 12.7546 148.149 11.6487 146.328 11.6487C144.523 11.6487 143.115 12.7546 142.656 14.4061Z" fill="#00004F"/>
</g>
<defs>
<linearGradient id="paint0_linear_236_313" x1="29.2921" y1="19.3235" x2="24.7236" y2="14.7037" gradientUnits="userSpaceOnUse">
<stop offset="0.0026455" stop-color="#7600FF" stop-opacity="0"/>
<stop offset="0.478" stop-color="#6C00DB" stop-opacity="0.4773"/>
<stop offset="0.9986" stop-color="#5F00B0"/>
</linearGradient>
<linearGradient id="paint1_linear_236_313" x1="25.3118" y1="10.3563" x2="39.5967" y2="13.5275" gradientUnits="userSpaceOnUse">
<stop stop-color="#B419FB"/>
<stop offset="0.2829" stop-color="#C522D7"/>
<stop offset="0.9082" stop-color="#F0387E"/>
<stop offset="0.9986" stop-color="#F63B70"/>
</linearGradient>
<linearGradient id="paint2_linear_236_313" x1="8.88895" y1="19.2239" x2="7.68526" y2="14.2275" gradientUnits="userSpaceOnUse">
<stop offset="0.0026455" stop-color="#7600FF" stop-opacity="0"/>
<stop offset="0.478" stop-color="#6C00DB" stop-opacity="0.4773"/>
<stop offset="0.9986" stop-color="#5F00B0"/>
</linearGradient>
<linearGradient id="paint3_linear_236_313" x1="13.2619" y1="7.29573" x2="13.8413" y2="7.29573" gradientUnits="userSpaceOnUse">
<stop stop-color="#3CDEDB"/>
<stop offset="1" stop-color="#BFF1C5"/>
</linearGradient>
<linearGradient id="paint4_linear_236_313" x1="-0.00054577" y1="6.95781" x2="29.6527" y2="6.95781" gradientUnits="userSpaceOnUse">
<stop offset="0.000702712" stop-color="#F43581"/>
<stop offset="1" stop-color="#FF6E00"/>
</linearGradient>
<linearGradient id="paint5_linear_236_313" x1="8.47809" y1="-0.465175" x2="13.3036" y2="8.57473" gradientUnits="userSpaceOnUse">
<stop offset="0.0026455" stop-color="#BD00FF" stop-opacity="0"/>
<stop offset="0.4678" stop-color="#AD00DB" stop-opacity="0.4664"/>
<stop offset="1" stop-color="#9800AE"/>
</linearGradient>
<clipPath id="clip0_236_313">
<rect width="153" height="22" fill="white"/>
</clipPath>
</defs>
</svg>
